<svg width="35" height="35" viewBox="0 0 35 35" fill="none" xmlns="http://www.w3.org/2000/svg">
<g clip-path="url(#clip0_131_16601)">
<g filter="url(#filter0_ddd_131_16601)">
<path d="M22.8775 33.8334H12.0022V22.9449H22.8775V33.8334Z" fill="#FEFE0F"/>
<path d="M22.8775 12.0553H12.0432V22.9392H1.16797V12.0518H12.0022V1.16675H22.8775V12.0553Z" fill="#FEFE0F"/>
<path d="M33.8348 22.9392H22.9595V12.0518H33.8348V22.9392Z" fill="#FEFE0F"/>
</g>
<path d="M24.1924 -0.150391V10.7354H35.1504V24.2559H24.1924V35.1504H10.6846V24.2559H-0.150391V10.7354H10.6846V-0.150391H24.1924ZM12.1504 33.6836H22.7266V23.0947H12.1504V33.6836ZM23.1084 22.7891H33.6836V12.2021H23.1084V22.7891ZM1.31641 22.7891H11.8916V12.2021H1.31641V22.7891ZM13.3584 21.6279H21.6416V13.3721H13.3584V21.6279ZM12.1504 11.9053H22.7266V1.31641H12.1504V11.9053Z" fill="#FCB138" stroke="black" stroke-width="0.3"/>
</g>
<defs>
<filter id="filter0_ddd_131_16601" x="-2.83203" y="-2.83325" width="40.668" height="40.6667" filterUnits="userSpaceOnUse" color-interpolation-filters="sRGB">
<feFlood flood-opacity="0" result="BackgroundImageFix"/>
<feColorMatrix in="SourceAlpha" type="matrix" values="0 0 0 0 0 0 0 0 0 0 0 0 0 0 0 0 0 0 127 0" result="hardAlpha"/>
<feOffset/>
<feGaussianBlur stdDeviation="2"/>
<feComposite in2="hardAlpha" operator="out"/>
<feColorMatrix type="matrix" values="0 0 0 0 1 0 0 0 0 0.819608 0 0 0 0 0.52549 0 0 0 1 0"/>
<feBlend mode="normal" in2="BackgroundImageFix" result="effect1_dropShadow_131_16601"/>
<feColorMatrix in="SourceAlpha" type="matrix" values="0 0 0 0 0 0 0 0 0 0 0 0 0 0 0 0 0 0 127 0" result="hardAlpha"/>
<feOffset/>
<feGaussianBlur stdDeviation="2"/>
<feComposite in2="hardAlpha" operator="out"/>
<feColorMatrix type="matrix" values="0 0 0 0 1 0 0 0 0 0.819608 0 0 0 0 0.52549 0 0 0 1 0"/>
<feBlend mode="normal" in2="effect1_dropShadow_131_16601" result="effect2_dropShadow_131_16601"/>
<feColorMatrix in="SourceAlpha" type="matrix" values="0 0 0 0 0 0 0 0 0 0 0 0 0 0 0 0 0 0 127 0" result="hardAlpha"/>
<feOffset/>
<feGaussianBlur stdDeviation="2"/>
<feComposite in2="hardAlpha" operator="out"/>
<feColorMatrix type="matrix" values="0 0 0 0 1 0 0 0 0 0.819608 0 0 0 0 0.52549 0 0 0 1 0"/>
<feBlend mode="normal" in2="effect2_dropShadow_131_16601" result="effect3_dropShadow_131_16601"/>
<feBlend mode="normal" in="SourceGraphic" in2="effect3_dropShadow_131_16601" result="shape"/>
</filter>
<clipPath id="clip0_131_16601">
<rect width="35" height="35" fill="white"/>
</clipPath>
</defs>
</svg>
